<svg width="1168" height="406" viewBox="0 0 1168 406" fill="none" xmlns="http://www.w3.org/2000/svg">
<rect x="1.08203" y="1.30469" width="1166.04" height="403.774" stroke="#140206"/>
<path d="M1032.96 46.1562L1.00096 46.1563" stroke="#140206"/>
<path d="M1032.96 90.9785L1.00096 90.9785" stroke="#140206"/>
<path d="M1032.96 135.854L1.00096 135.854" stroke="#140206"/>
<path d="M1032.96 225.545L1.00096 225.545" stroke="#140206"/>
<path d="M1032.96 270.395L1.00096 270.395" stroke="#140206"/>
<path d="M1032.96 315.086L1.00096 315.086" stroke="#140206"/>
<path d="M1032.96 360.1L1.00096 360.1" stroke="#140206"/>
<path d="M45.5391 1.30469L45.5391 405.078" stroke="#140206"/>
<path d="M90.6309 1.30469L90.6309 405.078" stroke="#140206"/>
<path d="M135.725 1.30469L135.725 405.078" stroke="#140206"/>
<path d="M180.816 1.30469L180.816 405.078" stroke="#140206"/>
<path d="M225.273 1.30469L225.273 405.078" stroke="#140206"/>
<path d="M270.365 1.30469L270.365 405.078" stroke="#140206"/>
<path d="M314.822 1.30469L314.822 405.078" stroke="#140206"/>
<path d="M359.914 1.30469L359.914 405.078" stroke="#140206"/>
<path d="M405.006 1.30469L405.006 405.078" stroke="#140206"/>
<path d="M450.098 1.30469L450.098 405.078" stroke="#140206"/>
<path d="M494.555 1.30469L494.555 405.078" stroke="#140206"/>
<path d="M539.646 1.30469L539.647 405.078" stroke="#140206"/>
<path d="M584.104 1.30469L584.104 405.078" stroke="#140206"/>
<path d="M629.197 1.30469L629.197 405.078" stroke="#140206"/>
<path d="M673.652 1.30469L673.652 405.078" stroke="#140206"/>
<path d="M719.379 1.30469L719.379 405.078" stroke="#140206"/>
<path d="M763.836 1.30469L763.836 405.078" stroke="#140206"/>
<path d="M808.928 1.30469L808.928 405.078" stroke="#140206"/>
<path d="M853.385 1.30469L853.385 405.078" stroke="#140206"/>
<path d="M898.477 1.30469L898.477 405.078" stroke="#140206"/>
<path d="M942.934 1.30469L942.934 405.078" stroke="#140206"/>
<path d="M988.025 1.30469L988.025 405.078" stroke="#140206"/>
<rect x="1033.12" y="1.30469" width="134.006" height="403.774" stroke="#140206"/>
<path d="M1167.02 46.123L1032.94 46.123" stroke="#140206"/>
<path d="M1167.02 90.9785L1032.94 90.9785" stroke="#140206"/>
<path d="M1167.02 136.055L1032.94 136.055" stroke="#140206"/>
<path d="M1167.13 180.971L1.09179 180.971" stroke="#140206"/>
<path d="M1167.02 225.57L1032.94 225.57" stroke="#140206"/>
<path d="M1167.02 270.352L1032.94 270.352" stroke="#140206"/>
<path d="M1167.02 315.086L1032.94 315.086" stroke="#140206"/>
<path d="M1167.02 360.162L1032.94 360.162" stroke="#140206"/>
<path d="M1167.02 405.236L1032.94 405.236" stroke="#140206"/>
<path d="M1077.57 1.30469L1077.57 405.078" stroke="#140206"/>
<path d="M1122.67 1.30469L1122.67 405.078" stroke="#140206"/>
</svg>
